# xmcd
#
# Track frame offsets:
#	150
#	17144
#	37543
#	60437
#	76143
#	93184
#	107588
#	126343
#	146043
#	168746
#	191654
#	194814
#	217100
#
# Disc length: 3123 seconds
#
# Revision: 0
# Processed by: cddbd v1.4PL0 Copyright (c) Steve Scherf et al.
# Submitted via: dBpowerAMP V4.0
#
DISCID=b40c310d
DTITLE=Papa Lips - High Time Now
DYEAR=1900
DGENRE=R&B
TTITLE0=Hign Time Now
TTITLE1=Dek'Da
TTITLE2=Love Miracle
TTITLE3=You Ain't Gotta
TTITLE4=In Your Arms
TTITLE5=Rain
TTITLE6=I'll Be Free
TTITLE7=Todo El Mundo
TTITLE8=Stay With Me Tonight
TTITLE9=Never Give It Up
TTITLE10=Jam 1
TTITLE11=Just Got To Try
TTITLE12=Soul
EXTD=
EXTT0=
EXTT1=
EXTT2=
EXTT3=
EXTT4=
EXTT5=
EXTT6=
EXTT7=
EXTT8=
EXTT9=
EXTT10=
EXTT11=
EXTT12=
PLAYORDER=
